<svg width="17" height="17" viewBox="0 0 17 17" fill="none" xmlns="http://www.w3.org/2000/svg">
<path d="M0.843054 12.2825H13.0936C13.2035 12.2825 13.3097 12.2441 13.3939 12.174C13.5116 12.0755 16.1956 9.76651 16.3593 4.78223H3.20247C3.03943 9.30662 0.56751 11.4332 0.541821 11.4544C0.391221 11.5817 0.335812 11.7895 0.403565 11.9745C0.470849 12.1589 0.646201 12.2825 0.843054 12.2825Z" fill="#F8C32C"/>
<path d="M15.9048 1.96977H13.561V1.501C13.561 1.23848 13.3547 1.03223 13.0922 1.03223C12.8297 1.03223 12.6234 1.23848 12.6234 1.501V1.96977H10.2483V1.501C10.2483 1.23848 10.0421 1.03223 9.7796 1.03223C9.51709 1.03223 9.31083 1.23848 9.31083 1.501V1.96977H6.96697V1.501C6.96697 1.23848 6.76071 1.03223 6.4982 1.03223C6.23569 1.03223 6.02943 1.23848 6.02943 1.501V1.96977H3.68557C3.42306 1.96977 3.2168 2.17603 3.2168 2.43854V3.84485H16.3736V2.43854C16.3736 2.17603 16.1674 1.96977 15.9048 1.96977Z" fill="#F8C32C"/>
<path d="M13.9945 12.8923C13.74 13.1042 13.4205 13.2196 13.0922 13.2196H3.2168V14.6259C3.2168 14.885 3.42647 15.0947 3.68557 15.0947H15.9048C16.1639 15.0947 16.3736 14.885 16.3736 14.6259V9.37109C15.4698 11.5884 14.2086 12.713 13.9945 12.8923Z" fill="#F8C32C"/>
</svg>
