<svg width="17" height="17" viewBox="0 0 17 17" fill="none" xmlns="http://www.w3.org/2000/svg">
<g clip-path="url(#clip0_158_423)">
<path d="M14.0318 2.40661C12.5209 0.895633 10.5119 0.0634766 8.375 0.0634766C6.23812 0.0634766 4.22916 0.895633 2.71816 2.40661C1.20716 3.91761 0.375 5.92657 0.375 8.06348C0.375 10.2004 1.20713 12.2094 2.71816 13.7204C4.22916 15.2313 6.23812 16.0635 8.375 16.0635C10.5119 16.0635 12.5209 15.2313 14.0319 13.7204C15.5429 12.2094 16.375 10.2004 16.375 8.06348C16.375 5.92657 15.5429 3.91761 14.0318 2.40661ZM8.87712 11.5447H8.84375V12.5823C8.84375 12.8412 8.63391 13.051 8.375 13.051C8.11616 13.051 7.90625 12.8412 7.90625 12.5823V11.5447H6.86878C6.60994 11.5447 6.40003 11.3349 6.40003 11.076C6.40003 10.8171 6.60994 10.6072 6.86878 10.6072H8.87716C9.44922 10.6072 9.91463 10.1418 9.91463 9.56973C9.91463 8.99767 9.44919 8.53223 8.87712 8.53223H7.87291C6.78391 8.53223 5.89794 7.64626 5.89794 6.55726C5.89794 5.46823 6.78394 4.58226 7.87291 4.58226H7.90625V3.54476C7.90625 3.28589 8.11616 3.07601 8.375 3.07601C8.63391 3.07601 8.84375 3.28589 8.84375 3.54476V4.58226H9.88128C10.1401 4.58226 10.35 4.79214 10.35 5.05101C10.35 5.30989 10.1401 5.51976 9.88128 5.51976H7.87291C7.30081 5.51976 6.83544 5.98517 6.83544 6.55726C6.83544 7.12932 7.30084 7.59473 7.87291 7.59473H8.87712C9.96612 7.59473 10.8521 8.48073 10.8521 9.56973C10.8521 10.6588 9.96612 11.5447 8.87712 11.5447Z" fill="#F8C32C"/>
</g>
<defs>
<clipPath id="clip0_158_423">
<rect width="17" height="16" fill="white" transform="translate(0 0.0634766)"/>
</clipPath>
</defs>
</svg>
